<?xml version="1.0" encoding="UTF-8" standalone="no"?>
<!-- Created with Inkscape (http://www.inkscape.org/) -->

<svg
   xmlns:dc="http://purl.org/dc/elements/1.1/"
   xmlns:cc="http://creativecommons.org/ns#"
   xmlns:rdf="http://www.w3.org/1999/02/22-rdf-syntax-ns#"
   xmlns:svg="http://www.w3.org/2000/svg"
   xmlns="http://www.w3.org/2000/svg"
   xmlns:sodipodi="http://sodipodi.sourceforge.net/DTD/sodipodi-0.dtd"
   xmlns:inkscape="http://www.inkscape.org/namespaces/inkscape"
   width="744.09448819"
   height="1052.3622047"
   id="svg2"
   version="1.1"
   inkscape:version="0.48.5 r10040"
   sodipodi:docname="mvc_vs_mvc.svg">
  <defs
     id="defs4" />
  <sodipodi:namedview
     id="base"
     pagecolor="#ffffff"
     bordercolor="#666666"
     borderopacity="1.0"
     inkscape:pageopacity="0.0"
     inkscape:pageshadow="2"
     inkscape:zoom="0.98994949"
     inkscape:cx="341.83916"
     inkscape:cy="752.63555"
     inkscape:document-units="px"
     inkscape:current-layer="layer1"
     showgrid="true"
     inkscape:window-width="1366"
     inkscape:window-height="715"
     inkscape:window-x="-8"
     inkscape:window-y="22"
     inkscape:window-maximized="1">
    <inkscape:grid
       type="xygrid"
       id="grid2996" />
  </sodipodi:namedview>
  <metadata
     id="metadata7">
    <rdf:RDF>
      <cc:Work
         rdf:about="">
        <dc:format>image/svg+xml</dc:format>
        <dc:type
           rdf:resource="http://purl.org/dc/dcmitype/StillImage" />
        <dc:title></dc:title>
      </cc:Work>
    </rdf:RDF>
  </metadata>
  <g
     inkscape:label="Layer 1"
     inkscape:groupmode="layer"
     id="layer1">
    <rect
       style="fill:#21d500;fill-opacity:1;stroke:none"
       id="rect3002"
       width="240"
       height="60"
       x="70"
       y="192.36218"
       inkscape:export-filename="C:\Work\ITAD\presentation\intro-to-core\images\mvc_vs_mvc.png"
       inkscape:export-xdpi="90"
       inkscape:export-ydpi="90" />
    <rect
       style="fill:#21d500;fill-opacity:1;stroke:none"
       id="rect3004"
       width="590"
       height="60"
       x="320"
       y="192.36218"
       inkscape:export-filename="C:\Work\ITAD\presentation\intro-to-core\images\mvc_vs_mvc.png"
       inkscape:export-xdpi="90"
       inkscape:export-ydpi="90" />
    <rect
       style="fill:#005dff;fill-opacity:1;stroke:none;opacity:0.3"
       id="rect3006"
       width="370.00006"
       height="60.000057"
       x="540"
       y="262.36218"
       inkscape:export-filename="C:\Work\ITAD\presentation\intro-to-core\images\mvc_vs_mvc.png"
       inkscape:export-xdpi="90"
       inkscape:export-ydpi="90" />
    <rect
       style="fill:#005dff;fill-opacity:1;stroke:none"
       id="rect3008"
       width="460"
       height="60"
       x="70"
       y="262.36218"
       inkscape:export-filename="C:\Work\ITAD\presentation\intro-to-core\images\mvc_vs_mvc.png"
       inkscape:export-xdpi="90"
       inkscape:export-ydpi="90" />
    <rect
       style="fill:#8f0092;fill-opacity:1;stroke:none"
       id="rect3010"
       width="460"
       height="60"
       x="70"
       y="332.36218"
       inkscape:export-filename="C:\Work\ITAD\presentation\intro-to-core\images\mvc_vs_mvc.png"
       inkscape:export-xdpi="90"
       inkscape:export-ydpi="90" />
    <rect
       style="fill:#8f0092;fill-opacity:1;stroke:none;opacity:0.3"
       id="rect3012"
       width="370.00009"
       height="60.000019"
       x="540"
       y="332.36218"
       inkscape:export-filename="C:\Work\ITAD\presentation\intro-to-core\images\mvc_vs_mvc.png"
       inkscape:export-xdpi="90"
       inkscape:export-ydpi="90" />
    <rect
       style="fill:#470064;fill-opacity:1;stroke:none"
       id="rect3014"
       width="840.00043"
       height="59.999714"
       x="70"
       y="402.36218"
       inkscape:export-filename="C:\Work\ITAD\presentation\intro-to-core\images\mvc_vs_mvc.png"
       inkscape:export-xdpi="90"
       inkscape:export-ydpi="90" />
    <text
       xml:space="preserve"
       style="font-size:18px;font-style:normal;font-variant:normal;font-weight:normal;font-stretch:normal;line-height:125%;letter-spacing:0px;word-spacing:0px;fill:#ffffff;fill-opacity:1;stroke:none;font-family:Segoe UI;-inkscape-font-specification:Segoe UI"
       x="90"
       y="232.36218"
       id="text3016"
       sodipodi:linespacing="125%"
       inkscape:export-filename="C:\Work\ITAD\presentation\intro-to-core\images\mvc_vs_mvc.png"
       inkscape:export-xdpi="90"
       inkscape:export-ydpi="90"><tspan
         sodipodi:role="line"
         id="tspan3018"
         x="90"
         y="232.36218">ASP.NET 4.6.2</tspan></text>
    <text
       xml:space="preserve"
       style="font-size:18px;font-style:normal;font-variant:normal;font-weight:normal;font-stretch:normal;line-height:125%;letter-spacing:0px;word-spacing:0px;fill:#ffffff;fill-opacity:1;stroke:none;font-family:Segoe UI;-inkscape-font-specification:Segoe UI"
       x="340"
       y="232.36218"
       id="text3016-1"
       sodipodi:linespacing="125%"
       inkscape:export-filename="C:\Work\ITAD\presentation\intro-to-core\images\mvc_vs_mvc.png"
       inkscape:export-xdpi="90"
       inkscape:export-ydpi="90"><tspan
         sodipodi:role="line"
         id="tspan3018-7"
         x="340"
         y="232.36218">ASP.NET Core 1.1</tspan></text>
    <text
       xml:space="preserve"
       style="font-size:18px;font-style:normal;font-variant:normal;font-weight:normal;font-stretch:normal;line-height:125%;letter-spacing:0px;word-spacing:0px;fill:#ffffff;fill-opacity:1;stroke:none;font-family:Segoe UI;-inkscape-font-specification:Segoe UI"
       x="90"
       y="302.36218"
       id="text3016-4"
       sodipodi:linespacing="125%"
       inkscape:export-filename="C:\Work\ITAD\presentation\intro-to-core\images\mvc_vs_mvc.png"
       inkscape:export-xdpi="90"
       inkscape:export-ydpi="90"><tspan
         sodipodi:role="line"
         id="tspan3018-0"
         x="90"
         y="302.36218">.NET Standard 4.6.2</tspan></text>
    <text
       xml:space="preserve"
       style="font-size:18px;font-style:normal;font-variant:normal;font-weight:normal;font-stretch:normal;line-height:125%;letter-spacing:0px;word-spacing:0px;fill:#ffffff;fill-opacity:1;stroke:none;font-family:Segoe UI;-inkscape-font-specification:Segoe UI"
       x="90"
       y="372.36218"
       id="text3016-4-9"
       sodipodi:linespacing="125%"
       inkscape:export-filename="C:\Work\ITAD\presentation\intro-to-core\images\mvc_vs_mvc.png"
       inkscape:export-xdpi="90"
       inkscape:export-ydpi="90"><tspan
         sodipodi:role="line"
         id="tspan3018-0-4"
         x="90"
         y="372.36218">.NET Standard libraries</tspan></text>
    <text
       xml:space="preserve"
       style="font-size:18px;font-style:normal;font-variant:normal;font-weight:normal;font-stretch:normal;line-height:125%;letter-spacing:0px;word-spacing:0px;fill:#ffffff;fill-opacity:1;stroke:none;font-family:Segoe UI;-inkscape-font-specification:Segoe UI"
       x="562"
       y="302.36218"
       id="text3016-4-8"
       sodipodi:linespacing="125%"
       inkscape:export-filename="C:\Work\ITAD\presentation\intro-to-core\images\mvc_vs_mvc.png"
       inkscape:export-xdpi="90"
       inkscape:export-ydpi="90"><tspan
         sodipodi:role="line"
         id="tspan3018-0-8"
         x="562"
         y="302.36218">.NET Core 1.1</tspan></text>
    <text
       xml:space="preserve"
       style="font-size:18px;font-style:normal;font-variant:normal;font-weight:normal;font-stretch:normal;line-height:125%;letter-spacing:0px;word-spacing:0px;fill:#ffffff;fill-opacity:1;stroke:none;font-family:Segoe UI;-inkscape-font-specification:Segoe UI"
       x="562"
       y="372.36218"
       id="text3016-4-8-2"
       sodipodi:linespacing="125%"
       inkscape:export-filename="C:\Work\ITAD\presentation\intro-to-core\images\mvc_vs_mvc.png"
       inkscape:export-xdpi="90"
       inkscape:export-ydpi="90"><tspan
         sodipodi:role="line"
         id="tspan3018-0-8-4"
         x="562"
         y="372.36218">.NET Core libraries</tspan></text>
    <text
       xml:space="preserve"
       style="font-size:18px;font-style:normal;font-variant:normal;font-weight:normal;font-stretch:normal;line-height:125%;letter-spacing:0px;word-spacing:0px;fill:#ffffff;fill-opacity:1;stroke:none;font-family:Segoe UI;-inkscape-font-specification:Segoe UI"
       x="90"
       y="442.36218"
       id="text3016-4-9-5"
       sodipodi:linespacing="125%"
       inkscape:export-filename="C:\Work\ITAD\presentation\intro-to-core\images\mvc_vs_mvc.png"
       inkscape:export-xdpi="90"
       inkscape:export-ydpi="90"><tspan
         sodipodi:role="line"
         id="tspan3018-0-4-5"
         x="90"
         y="442.36218">Compilers and runtime components</tspan></text>
    <path
       id="path3916"
       d="m 493,291.26218 v -5.25 l 6,-1.32 v 6.48 l -6,0.09 m 17,-9 v 8.75 l -10,0.15 v -6.69 l 10,-2.21 m -17,10 6,0.09 v 6.81 l -6,-1.15 v -5.75 m 17,0.25 v 8.75 l -10,-1.91 v -6.99 l 10,0.15 z"
       inkscape:connector-curvature="0"
       style="fill:#ffffff;fill-opacity:1"
       inkscape:export-filename="C:\Work\ITAD\presentation\intro-to-core\images\mvc_vs_mvc.png"
       inkscape:export-xdpi="90"
       inkscape:export-ydpi="90" />
    <g
       id="g4023"
       inkscape:export-filename="C:\Work\ITAD\presentation\intro-to-core\images\mvc_vs_mvc.png"
       inkscape:export-xdpi="90"
       inkscape:export-ydpi="90">
      <path
         style="fill:#ffffff;fill-opacity:1"
         inkscape:connector-curvature="0"
         d="m 872.74746,290.2283 v -5.25 l 6,-1.32 v 6.48 l -6,0.09 m 17,-9 v 8.75 l -10,0.15 v -6.69 l 10,-2.21 m -17,10 6,0.09 v 6.81 l -6,-1.15 v -5.75 m 17,0.25 v 8.75 l -10,-1.91 v -6.99 l 10,0.15 z"
         id="path3916-2" />
      <g
         style="fill:#ffffff;fill-opacity:1"
         transform="matrix(0.04084057,0,0,0.04084057,845.38473,280.15343)"
         id="g3990">
        <g
           style="fill:#ffffff;fill-opacity:1"
           id="g3944">
          <g
             style="fill:#ffffff;fill-opacity:1"
             id="g3946">
            <path
               style="fill:#ffffff;fill-opacity:1"
               inkscape:connector-curvature="0"
               d="m 469.584,428.409 c -2.087,-2.379 -5.041,-4.709 -8.846,-6.995 -0.575,-0.373 -2.143,-1.279 -4.702,-2.7 -2.566,-1.43 -4.613,-2.666 -6.143,-3.716 -1.52,-1.048 -3.519,-2.854 -5.996,-5.425 -2.471,-2.566 -4.421,-5.283 -5.852,-8.138 -1.427,-2.851 -2.807,-6.704 -4.141,-11.56 -1.335,-4.856 -2.088,-10.232 -2.283,-16.133 -2.666,2.276 -4.138,6.797 -4.425,13.559 -0.287,6.756 1.144,13.651 4.285,20.694 3.138,7.046 7.85,11.607 14.13,13.706 6.088,2.098 10.988,4.328 14.705,6.707 3.706,2.382 6.091,5.089 7.139,8.135 1.047,3.053 -0.719,6.334 -5.284,9.852 -4.572,3.525 -11.898,6.995 -21.984,10.432 -13.894,4.753 -23.746,8.802 -29.554,12.128 -5.804,3.333 -14.317,9.664 -25.55,18.986 -7.617,6.282 -15.704,9.664 -24.273,10.14 -8.559,0.479 -15.512,-2.662 -20.837,-9.418 -5.332,-6.755 -7.05,-16.316 -5.144,-28.695 3.617,-23.79 3.528,-42.349 -0.277,-55.671 -3.046,-10.469 -3.717,-19.702 -1.998,-27.696 1.711,-7.986 4.373,-12.647 7.994,-13.982 3.606,-1.338 7.515,1.52 11.703,8.559 0.373,0.951 1.235,2.807 2.563,5.568 1.331,2.758 2.423,4.716 3.288,5.852 0.856,1.143 2.14,2.618 3.854,4.429 1.711,1.813 3.864,3.093 6.427,3.859 2.567,0.76 5.562,1.235 8.994,1.424 6.471,0.188 12.271,-1.143 17.415,-3.997 5.137,-2.854 8.997,-6.043 11.563,-9.564 2.566,-3.525 5.14,-6.899 7.707,-10.137 2.566,-3.241 4.805,-5.048 6.711,-5.431 2.091,-0.373 3.997,-2.468 5.711,-6.28 1.712,-3.805 2.854,-9.086 3.426,-15.841 0.575,-6.759 0.096,-14.801 -1.424,-24.123 -2.857,-16.566 -8.524,-34.741 -16.991,-54.535 -8.473,-19.797 -17.936,-35.309 -28.407,-46.54 -18.842,-19.983 -31.494,-40.729 -37.972,-62.239 -6.656,-22.648 -9.507,-43.015 -8.559,-61.098 C 337.511,79.581 334.702,65.543 328.138,50.41 321.575,35.279 312.862,23.716 302.013,15.722 295.162,10.585 286.689,6.636 276.607,3.874 266.519,1.112 256.428,-0.169 246.34,0.019 c -12.369,0 -22.27,1.997 -29.69,5.996 -15.227,8.186 -25.312,18.13 -30.264,29.836 -4.952,11.704 -7.232,26.122 -6.854,43.253 0.765,37.687 2.284,67.189 4.57,88.505 -2.667,9.899 -14.465,28.454 -35.404,55.672 -3.809,3.809 -7.521,8.947 -11.138,15.418 -3.615,6.473 -6.471,12.28 -8.564,17.415 -2.096,5.137 -4.902,12.56 -8.423,22.269 -3.523,9.705 -6.042,16.56 -7.566,20.554 -1.332,3.432 -3.427,7.422 -6.28,11.998 -2.856,4.564 -5.145,9.041 -6.854,13.411 -1.709,4.377 -2.663,9.325 -2.853,14.846 -0.19,4.188 0,7.806 0.572,10.848 0.759,4.575 2.19,5.999 4.281,4.288 8.569,-6.472 19.323,-2.666 32.264,11.423 9.136,9.897 25.221,32.929 48.251,69.094 1.903,3.234 3.805,6.707 5.708,10.428 1.908,3.706 3.711,8.65 5.426,14.838 1.713,6.194 2.428,11.756 2.141,16.707 -0.288,4.952 -2.474,9.521 -6.567,13.702 -4.093,4.186 -10.232,6.849 -18.415,7.991 -4.38,0.571 -9.657,0.195 -15.846,-1.143 -6.186,-1.332 -14.038,-3.519 -23.553,-6.564 -9.517,-3.042 -16.558,-5.14 -21.127,-6.283 -6.658,-1.526 -16.127,-3.467 -28.406,-5.852 -12.278,-2.382 -20.322,-4.141 -24.128,-5.284 -6.471,-1.711 -9.991,-4.182 -10.561,-7.422 -0.572,-2.666 0.76,-7.231 3.997,-13.699 3.239,-6.472 4.854,-11.14 4.854,-13.99 0.188,-2.098 0.094,-4.185 -0.288,-6.282 -0.378,-2.095 -0.806,-3.714 -1.283,-4.856 -0.476,-1.14 -1.285,-2.854 -2.428,-5.141 -1.143,-2.282 -1.903,-4 -2.284,-5.136 -3.424,-7.998 -3.901,-13.429 -1.427,-16.279 1.711,-2.475 5.804,-3.426 12.275,-2.852 9.707,0.952 17.605,-0.479 23.697,-4.287 10.085,-6.28 13.134,-16.368 9.135,-30.266 0,6.471 -1.143,11.32 -3.427,14.561 -2.284,3.234 -6.283,6.567 -11.991,9.996 -3.234,1.903 -8.947,3.043 -17.129,3.43 -8.183,0.38 -13.61,1.714 -16.274,3.997 -1.902,1.714 -2.9,4.284 -2.996,7.71 -0.094,3.433 0.337,6.899 1.287,10.424 0.95,3.521 1.903,7.562 2.853,12.132 0.953,4.571 1.331,8.381 1.143,11.423 -0.19,2.091 -1.908,7.282 -5.142,15.554 -3.234,8.282 -3.9,14.612 -1.997,18.986 0.953,2.098 2.568,3.956 4.853,5.571 2.283,1.618 5.471,2.998 9.563,4.145 4.089,1.143 7.85,2.046 11.278,2.71 3.424,0.66 8.182,1.522 14.272,2.563 6.091,1.043 10.944,1.954 14.561,2.71 12.182,2.478 26.075,6.57 41.684,12.278 15.607,5.712 26.169,8.658 31.689,8.847 5.33,0.188 10.42,-0.903 15.275,-3.285 4.853,-2.375 8.992,-5.089 12.419,-8.135 3.424,-3.046 8.516,-5.903 15.271,-8.565 6.76,-2.666 14.325,-4.093 22.701,-4.284 3.806,-0.188 9.326,-0.428 16.558,-0.712 7.233,-0.288 12.656,-0.428 16.273,-0.428 16.368,0 28.739,0.092 37.113,0.283 5.711,0.195 10.184,1.096 13.421,2.715 3.234,1.615 5.332,3.473 6.28,5.563 0.951,2.099 2.529,4.521 4.719,7.283 2.184,2.758 4.99,4.996 8.412,6.707 7.23,3.429 15.704,4.808 25.413,4.141 9.705,-0.664 16.18,-2.522 19.413,-5.567 5.329,-5.137 12.512,-11.231 21.553,-18.271 9.042,-7.039 17.187,-12.371 24.414,-15.988 1.52,-0.767 4.09,-2.002 7.707,-3.717 3.613,-1.714 6.656,-3.186 9.13,-4.428 2.475,-1.238 5.476,-2.81 8.99,-4.712 3.524,-1.906 6.379,-3.665 8.569,-5.284 2.189,-1.619 4.421,-3.47 6.707,-5.568 2.283,-2.091 3.758,-4.185 4.429,-6.279 0.657,-2.094 0.903,-4.236 0.712,-6.424 -0.195,-2.184 -1.332,-4.463 -3.43,-6.848 z M 316.559,152.468 c 0.568,-0.378 0.952,-0.522 1.14,-0.428 0.192,0.096 0.572,0.478 1.14,1.143 0.575,0.666 1.092,1.287 1.574,1.858 0.473,0.566 1.137,1.331 1.992,2.281 0.855,0.953 1.759,1.713 2.707,2.284 1.149,0.76 2.525,1.287 4.144,1.571 1.619,0.284 2.857,0.76 3.717,1.425 0.86,0.665 1.479,1.759 1.852,3.284 0.376,2.096 0.058,3.995 -0.989,5.708 -1.054,1.715 -2.43,2.478 -4.147,2.286 -3.426,-0.762 -7.139,-3.758 -11.133,-8.993 -3.992,-5.234 -4.662,-9.373 -1.997,-12.419 z M 281.154,41.555 c 0.948,-1.237 1.52,-2.236 1.708,-2.996 0.38,-1.146 0.428,-2.334 0.144,-3.571 -0.284,-1.237 -0.191,-2.474 0.284,-3.711 0.479,-1.237 1.574,-1.951 3.288,-2.141 1.712,0 3.997,1.429 6.852,4.283 0.568,0.382 1.472,0.953 2.703,1.713 1.239,0.762 2.095,1.427 2.57,1.997 0.476,0.568 0.712,1.049 0.712,1.427 -0.38,0.95 -1.235,1.622 -2.563,2 -1.327,0.378 -2.762,0.572 -4.281,0.572 -1.519,0 -2.382,0.094 -2.569,0.284 -1.523,0.572 -2.95,1.427 -4.285,2.568 -1.331,1.143 -2.378,1.999 -3.138,2.57 -0.767,0.57 -1.526,0.57 -2.286,0 -0.76,-1.143 -1.047,-1.952 -0.855,-2.426 0.193,-0.474 0.765,-1.332 1.716,-2.569 z M 142.972,255.256 c 1.328,-1.521 2.283,-2.758 2.853,-3.711 0.571,-0.953 1.093,-2.238 1.57,-3.854 0.476,-1.62 0.904,-2.811 1.285,-3.571 0.383,-0.765 0.955,-1.049 1.715,-0.859 0.378,-0.094 0.662,0.094 0.859,0.571 0.188,0.476 0.284,0.715 0.284,0.715 v 0.857 c 0,0.288 -0.049,0.666 -0.144,1.143 -0.096,0.48 -0.24,0.907 -0.428,1.285 -0.193,0.383 -0.382,0.955 -0.571,1.714 -0.19,0.76 -0.378,1.427 -0.572,1.997 -0.76,1.908 -1.952,3.617 -3.567,5.141 -1.619,1.522 -2.81,2.189 -3.571,1.998 -1.142,-0.378 -1.044,-1.525 0.287,-3.426 z M 329.683,431.41 c -0.38,6.088 -1.666,14.657 -3.856,25.697 -2.19,11.036 -3.572,18.366 -4.145,21.98 -3.997,-0.195 -6.279,-1.67 -6.851,-4.429 -0.568,-2.762 0,-6.327 1.714,-10.707 4.186,-12.758 6.369,-21.512 6.564,-26.266 0.387,-8.757 -0.568,-13.706 -2.848,-14.846 -2.102,-1.522 -5.335,1.335 -9.712,8.562 -8.381,13.706 -25.222,21.98 -50.535,24.842 -22.836,3.046 -38.634,-0.38 -47.392,-10.283 -1.903,-1.332 -3.806,-1.568 -5.708,-0.709 -1.903,0.849 -3.14,1.759 -3.711,2.703 -0.188,0.384 0,0.952 0.572,1.715 0.571,0.764 1.475,1.902 2.712,3.426 1.237,1.529 2.236,3.046 2.996,4.575 7.426,12.939 6.761,21.693 -1.997,26.262 0,-8.75 -0.666,-15.461 -1.997,-20.122 -1.333,-4.664 -3.995,-9.801 -7.994,-15.42 -3.995,-5.613 -6.755,-9.85 -8.276,-12.703 5.708,-0.568 10.039,-2.759 12.99,-6.567 2.95,-3.806 4.281,-7.898 3.997,-12.275 -0.286,-4.38 -1.95,-7.998 -4.996,-10.852 -1.713,-1.711 -10.566,-8.993 -26.553,-21.841 -15.986,-12.847 -25.885,-21.46 -29.69,-25.837 -0.765,-0.763 -3.046,-2.666 -6.854,-5.712 -3.809,-3.045 -6.189,-5.708 -7.139,-7.994 -8.757,-19.215 -9.707,-35.021 -2.856,-47.387 l 1.141,-1.427 c 0.95,-0.188 1.046,1.522 0.284,5.141 -1.141,5.331 -1.52,10.656 -1.141,15.988 0.76,11.994 4.187,20.937 10.277,26.833 3.999,4.004 6.757,3.717 8.281,-0.853 1.143,-1.526 1.665,-7.139 1.569,-16.851 -0.091,-9.702 0.05,-16.269 0.431,-19.698 1.524,-10.848 6.045,-24.27 13.562,-40.251 7.517,-15.99 13.468,-24.556 17.845,-25.697 -3.427,-5.52 -4.521,-11.516 -3.283,-17.988 1.235,-6.472 3.237,-11.995 5.995,-16.56 2.757,-4.567 5.568,-9.847 8.42,-15.844 2.856,-5.996 4.283,-11.374 4.283,-16.132 0,-1.33 0.098,-2.283 0.288,-2.854 0.57,-1.713 2.95,0.38 7.137,6.279 7.994,11.803 13.99,18.752 17.988,20.845 4.187,2.281 8.848,2.187 13.988,-0.288 5.138,-2.474 11.466,-6.567 18.986,-12.275 7.515,-5.708 13.939,-9.897 19.27,-12.559 0.575,-0.193 1.476,-0.621 2.718,-1.287 1.231,-0.662 2.183,-1.141 2.847,-1.429 0.661,-0.284 1.52,-0.711 2.57,-1.283 1.04,-0.571 1.848,-1.047 2.42,-1.429 0.571,-0.383 1.143,-0.811 1.711,-1.287 0.567,-0.478 0.947,-0.95 1.143,-1.427 0.191,-0.476 0.287,-0.903 0.287,-1.285 -0.383,-1.714 -1.19,-2.762 -2.43,-3.14 -1.238,-0.38 -2.901,-0.144 -4.996,0.715 -2.094,0.857 -4.428,2 -6.995,3.426 -2.566,1.427 -5.42,3.045 -8.562,4.854 -3.139,1.809 -6.328,3.472 -9.562,4.997 -3.234,1.524 -6.662,2.856 -10.279,3.999 -3.616,1.14 -7.042,1.809 -10.277,1.999 -7.994,0.191 -14.368,-1.899 -19.126,-6.28 -3.045,-2.858 -4.661,-4.665 -4.854,-5.426 -0.192,-0.759 0.666,-0.949 2.568,-0.571 10.282,1.333 17.798,1.521 22.557,0.571 4.948,-0.759 11.609,-2.95 19.985,-6.567 1.715,-0.76 6.04,-2.618 12.994,-5.568 6.943,-2.946 12.323,-4.993 16.129,-6.136 2.289,-0.572 3.86,-1.475 4.716,-2.712 0.852,-1.237 1.14,-2.38 0.852,-3.428 -0.283,-1.045 -0.903,-1.853 -1.851,-2.424 -2.099,-1.143 -4.001,-0.38 -5.708,2.284 -0.955,1.713 -2.957,3.381 -6,4.997 -3.042,1.62 -5.854,2.855 -8.422,3.711 -2.569,0.855 -5.852,1.855 -9.851,2.996 -3.999,1.143 -6.184,1.809 -6.567,1.999 -10.467,3.234 -20.174,4.663 -29.121,4.281 -4.188,-0.188 -7.565,-0.809 -10.133,-1.856 -2.57,-1.044 -4.333,-2.281 -5.282,-3.711 -0.953,-1.425 -2.474,-3.234 -4.568,-5.424 -2.096,-2.19 -4.476,-4.045 -7.139,-5.57 -1.903,-0.95 -2.618,-2.663 -2.141,-5.137 0.476,-2.474 1.951,-5.046 4.425,-7.71 0.19,-0.192 2.142,-1.379 5.852,-3.569 3.711,-2.19 6.329,-4.427 7.854,-6.711 1.709,-2.664 4.661,-5.426 8.848,-8.282 0.19,-0.76 0.334,-2.853 0.428,-6.279 0.094,-3.424 -0.809,-7.136 -2.712,-11.133 -1.903,-3.999 -4.475,-5.995 -7.71,-5.995 -4.569,-0.19 -7.804,1.141 -9.707,3.997 -1.903,2.852 -2.757,6.375 -2.568,10.562 0.193,3.615 1.097,6.801 2.712,9.563 1.619,2.762 3.095,4.143 4.427,4.143 2.092,-0.193 2.758,0.566 1.997,2.281 -1.141,2.096 -2.666,3.431 -4.568,3.999 -1.336,0.378 -2.812,-0.905 -4.427,-3.855 -1.619,-2.95 -2.855,-6.517 -3.711,-10.706 -0.855,-4.187 -1.191,-7.708 -0.998,-10.566 0.378,-5.9 1.947,-11.563 4.709,-16.988 2.762,-5.424 6.711,-8.042 11.848,-7.854 5.33,0.193 9.616,3.431 12.85,9.71 3.239,6.28 4.76,14.849 4.57,25.697 0.572,1.333 2.046,1.809 4.427,1.427 2.375,-0.382 5.518,-0.431 9.419,-0.144 3.899,0.284 6.706,1.282 8.42,2.996 0.193,0 0.288,-1.43 0.288,-4.283 -3.427,-23.979 5.042,-36.732 25.41,-38.256 3.039,0.572 5.609,1.287 7.7,2.141 2.101,0.855 4.329,2.286 6.711,4.283 2.385,1.997 4.376,4.899 5.995,8.708 1.619,3.811 2.905,8.569 3.856,14.277 v 10.562 c 0,6.09 -1.242,9.517 -3.716,10.279 -3.994,1.331 -6.845,1.285 -8.556,-0.144 -1.715,-1.43 -1.529,-3.949 0.568,-7.566 1.902,-4.758 1.522,-10.282 -1.144,-16.562 -2.662,-6.279 -7.519,-9.135 -14.558,-8.563 -4.76,0.191 -8.186,2.761 -10.28,7.708 -2.094,4.949 -2.853,9.803 -2.282,14.562 0.571,4.758 1.615,7.232 3.142,7.421 1.14,0.193 4.523,1.714 10.137,4.57 5.622,2.855 9.855,4.567 12.706,5.138 7.423,1.52 11.652,3.9 12.703,7.137 1.047,3.239 0.619,7.948 -1.283,14.133 -1.906,6.189 -2.475,11.276 -1.708,15.275 0.76,4.192 2.19,7.994 4.285,11.42 2.094,3.429 4.325,6.567 6.707,9.424 2.378,2.849 5.181,8.183 8.425,15.985 3.231,7.806 6.181,17.607 8.843,29.408 0.188,0.19 0.9,0.856 2.14,1.999 1.238,1.141 2.471,2.568 3.713,4.281 1.242,1.714 2.714,4.045 4.428,6.995 1.712,2.952 3.573,7.282 5.571,12.994 1.992,5.708 3.854,12.279 5.564,19.698 2.095,8.761 3.189,18.935 3.285,30.553 0.097,11.608 0.856,19.555 2.286,23.839 1.431,4.288 5.093,6.047 10.992,5.284 7.423,-0.38 12.187,-4.377 14.271,-11.991 6.283,-22.08 1.15,-48.54 -15.413,-79.37 -6.283,-11.992 -11.704,-19.892 -16.276,-23.697 6.66,3.806 13.515,10.941 20.561,21.413 7.043,10.47 11.512,20.275 13.415,29.405 0.185,0.955 0.712,3.478 1.567,7.566 0.855,4.093 1.334,6.475 1.424,7.139 0.092,0.667 0.479,2.618 1.14,5.853 0.67,3.236 0.999,5.331 0.999,6.282 0,0.955 0.092,2.81 0.287,5.568 0.195,2.758 0.144,4.9 -0.144,6.423 -0.287,1.526 -0.568,3.573 -0.855,6.137 -0.287,2.569 -0.76,5.044 -1.427,7.426 -0.657,2.378 -1.373,5 -2.136,7.851 10.465,4.568 15.701,8.562 15.701,11.991 -3.994,-3.237 -9.709,-5.376 -17.135,-6.413 -7.427,-1.051 -14.318,-0.052 -20.697,2.994 -6.379,3.046 -9.664,8.087 -9.856,15.126 -6.851,0 -11.707,1.711 -14.558,5.144 -4.186,4.945 -6.372,11.652 -6.563,20.126 -0.191,8.466 0.517,17.702 2.135,27.688 1.626,9.992 2.242,16.983 1.858,20.983 z M 210.062,100.506 c -0.572,-0.188 -1.047,-0.763 -1.425,-1.713 0,-1.709 0.854,-2.38 2.568,-1.997 1.143,0.378 2.24,1.807 3.284,4.281 1.047,2.474 1.285,5.33 0.715,8.566 0,0.571 -0.284,0.859 -0.859,0.854 -2.096,0 -2.856,-1.902 -2.284,-5.708 0.569,-2.855 -0.097,-4.283 -1.999,-4.283 z m 73.946,4.571 -0.568,0.855 c -1.52,0.95 -2.275,1.141 -2.275,0.572 -0.767,-5.142 -2.479,-8.092 -5.141,-8.854 l -1.143,-0.57 c -1.335,-1.143 -0.671,-1.809 1.991,-1.999 0.571,-0.191 1.427,0.093 2.57,0.855 1.143,0.763 2.19,1.953 3.142,3.571 0.948,1.62 1.424,3.473 1.424,5.57 z"
               id="path3948" />
            <path
               style="fill:#ffffff;fill-opacity:1"
               inkscape:connector-curvature="0"
               d="m 217.484,121.631 c 0,1.143 0.479,1.619 1.431,1.43 0.76,0 1.565,-0.905 2.424,-2.713 0.857,-1.804 2.334,-2.803 4.425,-2.996 v -0.003 h -2.856 c -3.615,0.571 -5.424,1.998 -5.424,4.282 z"
               id="path3950" />
            <path
               style="fill:#ffffff;fill-opacity:1"
               inkscape:connector-curvature="0"
               d="m 242.326,118.208 c 1.903,-0.572 3.571,-0.14 4.998,1.287 1.425,1.425 2.522,2.046 3.284,1.853 1.138,-0.568 1.425,-1.427 0.854,-2.568 -1.522,-2.475 -4.566,-2.665 -9.136,-0.572 z"
               id="path3952" />
          </g>
        </g>
        <g
           style="fill:#ffffff;fill-opacity:1"
           id="g3954" />
        <g
           style="fill:#ffffff;fill-opacity:1"
           id="g3956" />
        <g
           style="fill:#ffffff;fill-opacity:1"
           id="g3958" />
        <g
           style="fill:#ffffff;fill-opacity:1"
           id="g3960" />
        <g
           style="fill:#ffffff;fill-opacity:1"
           id="g3962" />
        <g
           style="fill:#ffffff;fill-opacity:1"
           id="g3964" />
        <g
           style="fill:#ffffff;fill-opacity:1"
           id="g3966" />
        <g
           style="fill:#ffffff;fill-opacity:1"
           id="g3968" />
        <g
           style="fill:#ffffff;fill-opacity:1"
           id="g3970" />
        <g
           style="fill:#ffffff;fill-opacity:1"
           id="g3972" />
        <g
           style="fill:#ffffff;fill-opacity:1"
           id="g3974" />
        <g
           style="fill:#ffffff;fill-opacity:1"
           id="g3976" />
        <g
           style="fill:#ffffff;fill-opacity:1"
           id="g3978" />
        <g
           style="fill:#ffffff;fill-opacity:1"
           id="g3980" />
        <g
           style="fill:#ffffff;fill-opacity:1"
           id="g3982" />
      </g>
      <path
         style="fill:#ffffff;fill-opacity:1"
         inkscape:connector-curvature="0"
         d="m 838.3,298.23218 c -0.83,1.24 -1.71,2.45 -3.05,2.47 -1.34,0.03 -1.77,-0.79 -3.29,-0.79 -1.53,0 -2,0.77 -3.27,0.82 -1.31,0.05 -2.3,-1.32 -3.14,-2.53 -1.71,-2.47 -3.02,-7.02 -1.26,-10.08 0.87,-1.52 2.43,-2.48 4.12,-2.51 1.28,-0.02 2.5,0.87 3.29,0.87 0.78,0 2.26,-1.07 3.81,-0.91 0.65,0.03 2.47,0.26 3.64,1.98 -0.09,0.06 -2.17,1.28 -2.15,3.81 0.03,3.02 2.65,4.03 2.68,4.04 -0.03,0.07 -0.42,1.44 -1.38,2.83 m -5.71,-16 c 0.73,-0.83 1.94,-1.46 2.94,-1.5 0.13,1.17 -0.34,2.35 -1.04,3.19 -0.69,0.85 -1.83,1.51 -2.95,1.42 -0.15,-1.15 0.41,-2.35 1.05,-3.11 z"
         id="path4014" />
    </g>
    <rect
       style="fill:#ff4100;fill-opacity:1;stroke:none"
       id="rect3002-1"
       width="240"
       height="60"
       x="70"
       y="122.36218"
       inkscape:export-filename="C:\Work\ITAD\presentation\intro-to-core\images\mvc_vs_mvc.png"
       inkscape:export-xdpi="90"
       inkscape:export-ydpi="90" />
    <rect
       style="fill:#ff4100;fill-opacity:1;stroke:none"
       id="rect3004-7"
       width="590"
       height="60"
       x="320"
       y="122.36218"
       inkscape:export-filename="C:\Work\ITAD\presentation\intro-to-core\images\mvc_vs_mvc.png"
       inkscape:export-xdpi="90"
       inkscape:export-ydpi="90" />
    <text
       xml:space="preserve"
       style="font-size:18px;font-style:normal;font-variant:normal;font-weight:normal;font-stretch:normal;line-height:125%;letter-spacing:0px;word-spacing:0px;fill:#ffffff;fill-opacity:1;stroke:none;font-family:Segoe UI;-inkscape-font-specification:Segoe UI"
       x="90"
       y="162.36218"
       id="text3016-40"
       sodipodi:linespacing="125%"
       inkscape:export-filename="C:\Work\ITAD\presentation\intro-to-core\images\mvc_vs_mvc.png"
       inkscape:export-xdpi="90"
       inkscape:export-ydpi="90"><tspan
         sodipodi:role="line"
         id="tspan3018-9"
         x="90"
         y="162.36218">ASP.NET MVC 5</tspan></text>
    <text
       xml:space="preserve"
       style="font-size:18px;font-style:normal;font-variant:normal;font-weight:normal;font-stretch:normal;line-height:125%;letter-spacing:0px;word-spacing:0px;fill:#ffffff;fill-opacity:1;stroke:none;font-family:Segoe UI;-inkscape-font-specification:Segoe UI"
       x="340"
       y="162.36218"
       id="text3016-1-4"
       sodipodi:linespacing="125%"
       inkscape:export-filename="C:\Work\ITAD\presentation\intro-to-core\images\mvc_vs_mvc.png"
       inkscape:export-xdpi="90"
       inkscape:export-ydpi="90"><tspan
         sodipodi:role="line"
         id="tspan3018-7-8"
         x="340"
         y="162.36218">ASP.NET MVC Core 1.1</tspan></text>
  </g>
</svg>
